<svg width="17" height="17" viewBox="0 0 17 17" fill="none" xmlns="http://www.w3.org/2000/svg">
<g clip-path="url(#clip0_147_2605)">
<path fill-rule="evenodd" clip-rule="evenodd" d="M8.88155 0.346924C7.55547 0.346924 6.2837 0.873708 5.34601 1.81139C4.40833 2.74907 3.88155 4.02084 3.88155 5.34692C3.88155 7.53292 3.41448 8.86489 3.00365 9.61807C2.79686 9.9972 2.59877 10.24 2.46809 10.3779C2.40249 10.4472 2.35317 10.4907 2.3273 10.5123C2.31828 10.5198 2.31209 10.5247 2.30904 10.527C1.95493 10.7742 1.79884 11.2218 1.92446 11.6367C2.05215 12.0585 2.44088 12.3469 2.88155 12.3469H14.8815C15.3222 12.3469 15.7109 12.0585 15.8386 11.6367C15.9643 11.2218 15.8082 10.7742 15.4541 10.527C15.451 10.5247 15.4448 10.5198 15.4358 10.5123C15.4099 10.4907 15.3606 10.4472 15.295 10.3779C15.1643 10.24 14.9662 9.9972 14.7594 9.61807C14.3486 8.86489 13.8815 7.53292 13.8815 5.34692C13.8815 4.02084 13.3548 2.74907 12.4171 1.81139C11.4794 0.873708 10.2076 0.346924 8.88155 0.346924ZM12.8843 10.3469H4.87884C5.41871 9.26474 5.88155 7.65872 5.88155 5.34692C5.88155 4.55127 6.19762 3.78821 6.76023 3.2256C7.32284 2.66299 8.0859 2.34692 8.88155 2.34692C9.6772 2.34692 10.4403 2.66299 11.0029 3.2256C11.5655 3.78821 11.8815 4.55127 11.8815 5.34692C11.8815 7.65872 12.3444 9.26474 12.8843 10.3469ZM8.59323 13.5119C8.31611 13.0342 7.70418 12.8716 7.22646 13.1487C6.74873 13.4258 6.58611 14.0377 6.86323 14.5154C7.06834 14.869 7.36274 15.1625 7.71696 15.3666C8.07118 15.5706 8.47279 15.678 8.88156 15.678C9.29033 15.678 9.69194 15.5706 10.0462 15.3666C10.4004 15.1625 10.6948 14.869 10.8999 14.5154C11.177 14.0377 11.0144 13.4258 10.5367 13.1487C10.0589 12.8716 9.44701 13.0342 9.16989 13.5119C9.14059 13.5624 9.09853 13.6043 9.04793 13.6335C8.99733 13.6626 8.93996 13.678 8.88156 13.678C8.82316 13.678 8.76579 13.6626 8.71519 13.6335C8.66459 13.6043 8.62253 13.5624 8.59323 13.5119Z" fill="#868FA0"/>
</g>
<defs>
<clipPath id="clip0_147_2605">
<rect width="16" height="16" fill="white" transform="translate(0.881531 0.0136719)"/>
</clipPath>
</defs>
</svg>
