<svg width="17" height="17" viewBox="0 0 17 17" fill="none" xmlns="http://www.w3.org/2000/svg">
<g clip-path="url(#clip0_130_3957)">
<path fill-rule="evenodd" clip-rule="evenodd" d="M12.5482 1.34692C12.5482 0.794639 12.1005 0.346924 11.5482 0.346924C10.9959 0.346924 10.5482 0.794639 10.5482 1.34692V1.68042H7.21487V1.34692C7.21487 0.794639 6.76716 0.346924 6.21487 0.346924C5.66259 0.346924 5.21487 0.794639 5.21487 1.34692V1.68042H4.21486C2.9262 1.68042 1.88153 2.72509 1.88153 4.01375V6.68042V13.3471C1.88153 14.6358 2.9262 15.6804 4.21486 15.6804H13.5482C14.8369 15.6804 15.8815 14.6358 15.8815 13.3471V6.68042V4.01375C15.8815 2.72509 14.8369 1.68042 13.5482 1.68042H12.5482V1.34692ZM13.8815 5.68042V4.01375C13.8815 3.82966 13.7323 3.68042 13.5482 3.68042H12.5482V4.01359C12.5482 4.56588 12.1005 5.01359 11.5482 5.01359C10.9959 5.01359 10.5482 4.56588 10.5482 4.01359V3.68042H7.21487V4.01359C7.21487 4.56588 6.76716 5.01359 6.21487 5.01359C5.66259 5.01359 5.21487 4.56588 5.21487 4.01359V3.68042H4.21486C4.03077 3.68042 3.88153 3.82966 3.88153 4.01375V5.68042H13.8815ZM3.88153 7.68042H13.8815V13.3471C13.8815 13.5312 13.7323 13.6804 13.5482 13.6804H4.21486C4.03077 13.6804 3.88153 13.5312 3.88153 13.3471V7.68042Z" fill="#868FA0"/>
</g>
<defs>
<clipPath id="clip0_130_3957">
<rect width="16" height="16" fill="white" transform="translate(0.881531 0.0136719)"/>
</clipPath>
</defs>
</svg>
