<svg width="17" height="17" viewBox="0 0 17 17" fill="none" xmlns="http://www.w3.org/2000/svg">
<g clip-path="url(#clip0_148_3676)">
<path fill-rule="evenodd" clip-rule="evenodd" d="M9.49547 0.557572C9.13436 0.276708 8.6287 0.276708 8.26759 0.557572L2.26759 5.22424C2.024 5.41369 1.88153 5.705 1.88153 6.01359V13.3469C1.88153 13.9658 2.12736 14.5593 2.56495 14.9968C3.00253 15.4344 3.59603 15.6803 4.21486 15.6803H6.86859C6.8729 15.6803 6.87721 15.6803 6.88153 15.6803C6.88585 15.6803 6.89016 15.6803 6.89447 15.6803H10.8686C10.8729 15.6803 10.8772 15.6803 10.8815 15.6803C10.8859 15.6803 10.8902 15.6803 10.8945 15.6803H13.5482C14.167 15.6803 14.7605 15.4344 15.1981 14.9968C15.6357 14.5593 15.8815 13.9658 15.8815 13.3469V6.01359C15.8815 5.705 15.7391 5.41369 15.4955 5.22424L9.49547 0.557572ZM11.8815 13.6803H13.5482C13.6366 13.6803 13.7214 13.6451 13.7839 13.5826C13.8464 13.5201 13.8815 13.4353 13.8815 13.3469V6.50267L8.88153 2.61379L3.88153 6.50267V13.3469C3.88153 13.4353 3.91665 13.5201 3.97916 13.5826C4.04167 13.6451 4.12646 13.6803 4.21486 13.6803H5.88153V8.01367C5.88153 7.46139 6.32925 7.01367 6.88153 7.01367H10.8815C11.4338 7.01367 11.8815 7.46139 11.8815 8.01367V13.6803ZM7.88153 13.6803H9.88153V9.01367H7.88153V13.6803Z" fill="#868FA0"/>
</g>
<defs>
<clipPath id="clip0_148_3676">
<rect width="16" height="16" fill="white" transform="translate(0.881531 0.0136719)"/>
</clipPath>
</defs>
</svg>
