<svg width="17" height="17" viewBox="0 0 17 17" fill="none" xmlns="http://www.w3.org/2000/svg">
<g clip-path="url(#clip0_147_2610)">
<path fill-rule="evenodd" clip-rule="evenodd" d="M8.43427 0.452497C8.7158 0.311733 9.04717 0.311733 9.3287 0.452497L15.9954 3.78583C16.3341 3.95522 16.5482 4.30148 16.5482 4.68026C16.5482 5.05903 16.3341 5.40529 15.9954 5.57468L9.3287 8.90802C9.04717 9.04878 8.7158 9.04878 8.43427 8.90802L1.76761 5.57468C1.42882 5.40529 1.21482 5.05903 1.21482 4.68026C1.21482 4.30148 1.42882 3.95522 1.76761 3.78583L8.43427 0.452497ZM4.45089 4.68026L8.88148 6.89556L13.3121 4.68026L8.88148 2.46496L4.45089 4.68026ZM1.32039 10.8997C1.56738 10.4057 2.16805 10.2055 2.66203 10.4525L8.88148 13.5622L15.1009 10.4525C15.5949 10.2055 16.1956 10.4057 16.4426 10.8997C16.6896 11.3937 16.4893 11.9944 15.9954 12.2414L9.3287 15.5747C9.04717 15.7154 8.7158 15.7154 8.43427 15.5747L1.76761 12.2414C1.27363 11.9944 1.0734 11.3937 1.32039 10.8997ZM2.66203 7.11924C2.16805 6.87226 1.56738 7.07248 1.32039 7.56646C1.0734 8.06044 1.27363 8.66111 1.76761 8.9081L8.43427 12.2414C8.7158 12.3822 9.04717 12.3822 9.3287 12.2414L15.9954 8.9081C16.4893 8.66111 16.6896 8.06044 16.4426 7.56646C16.1956 7.07248 15.5949 6.87226 15.1009 7.11924L8.88148 10.229L2.66203 7.11924Z" fill="#868FA0"/>
</g>
<defs>
<clipPath id="clip0_147_2610">
<rect width="16" height="16" fill="white" transform="translate(0.881531 0.0136719)"/>
</clipPath>
</defs>
</svg>
