<svg width="17" height="17" viewBox="0 0 17 17" fill="none" xmlns="http://www.w3.org/2000/svg">
<path fill-rule="evenodd" clip-rule="evenodd" d="M7.21488 4.68034C7.21488 3.75986 7.96108 3.01367 8.88155 3.01367C9.80203 3.01367 10.5482 3.75986 10.5482 4.68034C10.5482 5.60081 9.80203 6.34701 8.88155 6.34701C7.96108 6.34701 7.21488 5.60081 7.21488 4.68034ZM8.88155 1.01367C6.85651 1.01367 5.21488 2.65529 5.21488 4.68034C5.21488 6.70538 6.85651 8.34701 8.88155 8.34701C10.9066 8.34701 12.5482 6.70538 12.5482 4.68034C12.5482 2.65529 10.9066 1.01367 8.88155 1.01367ZM6.21488 9.01367C5.24242 9.01367 4.30979 9.39998 3.62216 10.0876C2.93453 10.7752 2.54822 11.7079 2.54822 12.6803V14.0137C2.54822 14.566 2.99593 15.0137 3.54822 15.0137C4.1005 15.0137 4.54822 14.566 4.54822 14.0137V12.6803C4.54822 12.2383 4.72381 11.8144 5.03637 11.5018C5.34893 11.1893 5.77286 11.0137 6.21488 11.0137H11.5482C11.9902 11.0137 12.4142 11.1893 12.7267 11.5018C13.0393 11.8144 13.2149 12.2383 13.2149 12.6803V14.0137C13.2149 14.566 13.6626 15.0137 14.2149 15.0137C14.7672 15.0137 15.2149 14.566 15.2149 14.0137V12.6803C15.2149 11.7079 14.8286 10.7752 14.1409 10.0876C13.4533 9.39998 12.5207 9.01367 11.5482 9.01367H6.21488Z" fill="#868FA0"/>
</svg>
